Coordinates
version=1
nRows=36
nColumns=33
inDegrees=yes

Units are S.I. units (second, meters, Newtons, ...)
Angles are in degrees.

endheader
time	ground_thorax_rot_x	ground_thorax_rot_y	ground_thorax_rot_z	ground_thorax_tx	ground_thorax_ty	ground_thorax_tz	clav_prot_r	clav_elev_r	scapula_abduction_r	scapula_elevation_r	scapula_upward_rot_r	scapula_winging_r	shoulder_elv_r	plane_of_elev_r	axial_rot_r	elbow_flexion_r	pro_sup_r	wrist_flex_r	wrist_dev_r	clav_prot_l	clav_elev_l	scapula_abduction_l	scapula_elevation_l	scapula_upward_rot_l	scapula_winging_l	shoulder_elv_l	plane_of_elev_l	axial_rot_l	elbow_flexion_l	pro_sup_l	wrist_flex_l	wrist_dev_l	
2.0500	27.874808	43.581676	32.449694	-0.119396	1.009268	0.021473	-8.067039	44.465134	-35.605198	37.584300	40.703878	1.514914	15.872314	-89.999998	8.594759	70.914822	18.113364	37.599816	1.496559	28.442176	-33.802492	-45.000000	16.229886	-17.375467	4.187562	3.780326	-62.915387	-8.099369	62.657471	9.226469	-8.203394	-24.999744	
2.0600	27.875350	43.629921	32.372848	-0.119364	1.009249	0.021454	-8.065145	44.506696	-35.544588	37.586009	40.798199	1.479843	15.866837	-89.999997	8.600313	71.357350	17.755384	37.348292	1.791195	28.443429	-33.819275	-45.000000	16.251015	-17.362322	4.168580	4.226904	-62.846995	-8.273156	63.275714	9.004073	-7.972240	-24.999542	
2.0700	27.878169	43.665159	32.299532	-0.119313	1.009206	0.021428	-8.049720	44.552005	-35.462244	37.595290	40.891168	1.450175	15.857646	-89.999995	8.609587	71.805923	17.417880	37.105308	2.079953	28.442372	-33.830672	-45.000000	16.270877	-17.340062	4.153148	4.655223	-62.765464	-8.431165	63.886388	8.767106	-7.695427	-24.999180	
2.0800	27.883125	43.697347	32.222324	-0.119253	1.009155	0.021408	-8.030365	44.596770	-35.367445	37.605144	40.982102	1.421327	15.846987	-89.999991	8.620347	72.264378	17.058058	36.819565	2.399426	28.444011	-33.851744	-45.000000	16.297118	-17.324216	4.129501	5.104990	-62.676940	-8.600286	64.501024	8.494567	-7.360931	-24.998532	
2.0900	27.888206	43.730893	32.145414	-0.119189	1.009110	0.021395	-8.007917	44.641160	-35.263798	37.615719	41.071296	1.393390	15.834640	-89.999984	8.632826	72.728753	16.674147	36.483677	2.752419	28.447748	-33.876405	-45.000000	16.322496	-17.318575	4.104259	5.571556	-62.565274	-8.767213	65.100981	8.166894	-6.948407	-24.997368	
2.1000	27.892644	43.767043	32.072359	-0.119125	1.009077	0.021387	-7.981551	44.684945	-35.151417	37.627582	41.157389	1.367289	15.820821	-89.999971	8.646818	73.192946	16.272906	36.110925	3.127634	28.453157	-33.904706	-45.000000	16.348425	-17.319864	4.076718	6.045114	-62.430003	-8.929812	65.679829	7.794623	-6.474700	-24.995291	
2.1100	27.896196	43.806275	32.004049	-0.119061	1.009059	0.021383	-7.952147	44.727490	-35.031387	37.640085	41.239722	1.342761	15.806507	-89.999947	8.661373	73.655451	15.856198	35.706627	3.518390	28.459657	-33.934754	-45.000000	16.373771	-17.326549	4.048459	6.519748	-62.267889	-9.083662	66.231775	7.381268	-5.947188	-24.991549	
2.1200	27.894843	43.851698	31.946152	-0.119001	1.009073	0.021386	-7.922642	44.766192	-34.904887	37.650330	41.316062	1.318598	15.793900	-89.999906	8.674320	74.104718	15.441554	35.295137	3.903502	28.466280	-33.968156	-45.000000	16.403824	-17.329481	4.016139	6.979961	-62.084956	-9.227589	66.749054	6.960345	-5.408662	-24.984906	
2.1300	27.894427	43.899681	31.885567	-0.118943	1.009105	0.021399	-7.897216	44.798737	-34.771481	37.654278	41.386516	1.291886	15.786376	-89.999831	8.682365	74.560501	14.996980	34.823801	4.314861	28.474274	-34.003454	-45.000000	16.432624	-17.339753	3.983309	7.449211	-61.869938	-9.362778	67.237525	6.492316	-4.799878	-24.972838	
2.1400	27.892547	43.947447	31.834310	-0.118886	1.009156	0.021410	-7.868239	44.827531	-34.626067	37.657571	41.449094	1.267267	15.783129	-89.999697	8.686385	75.006426	14.575447	34.362519	4.699809	28.478872	-34.033229	-45.000000	16.463335	-17.332958	3.952622	7.874963	-61.628883	-9.470957	67.683134	6.032898	-4.200147	-24.951691	
2.1500	27.897265	43.986318	31.779914	-0.118818	1.009182	0.021421	-7.832671	44.854222	-34.466560	37.662643	41.504209	1.246159	15.786304	-89.999457	8.684418	75.467090	14.157441	33.882541	5.080721	28.480946	-34.058159	-45.000000	16.494162	-17.314961	3.924580	8.276080	-61.366808	-9.560891	68.109736	5.562388	-3.580011	-24.912501	
2.1600	27.898523	44.024741	31.740584	-0.118747	1.009213	0.021424	-7.789979	44.878756	-34.297326	37.670694	41.550130	1.230247	15.796852	-89.999028	8.675714	75.916575	13.782911	33.435290	5.422929	28.478932	-34.078642	-45.000000	16.530382	-17.273921	3.896505	8.621678	-61.090676	-9.626583	68.501983	5.128670	-3.009300	-24.845952	
2.1700	27.909855	44.056456	31.688102	-0.118676	1.009213	0.021434	-7.746324	44.895377	-34.120818	37.675549	41.581657	1.217003	15.825194	-89.998258	8.650457	76.408039	13.363476	32.883156	5.820408	28.479355	-34.100974	-45.000000	16.562033	-17.248119	3.869547	8.987144	-60.780688	-9.690051	68.887982	4.630475	-2.346710	-24.716554	
2.1800	27.916965	44.091860	31.648885	-0.118612	1.009225	0.021437	-7.700488	44.905785	-33.941009	37.679458	41.599829	1.207821	15.868562	-89.996882	8.611976	76.901149	12.952405	32.306657	6.219397	28.480178	-34.124399	-45.000000	16.594163	-17.223670	3.841739	9.327105	-60.442343	-9.739068	69.242980	4.130793	-1.691867	-24.513207	
2.1900	27.929069	44.115726	31.610761	-0.118543	1.009199	0.021441	-7.646376	44.914642	-33.750614	37.687193	41.608928	1.204218	15.925212	-89.994410	8.563192	77.427284	12.522061	31.675685	6.644586	28.483434	-34.150782	-45.000000	16.623523	-17.212668	3.813637	9.663574	-60.078783	-9.780192	69.591965	3.601614	-1.014148	-24.208776	
2.2000	27.930130	44.147493	31.592137	-0.118485	1.009202	0.021436	-7.594162	44.918120	-33.557159	37.691128	41.610612	1.200475	15.994430	-89.990002	8.506654	77.943945	12.095202	31.013075	7.076236	28.489988	-34.184761	-45.000000	16.654614	-17.214744	3.780425	9.980002	-59.687313	-9.804182	69.917070	3.075642	-0.367197	-23.771589	
2.2100	27.928806	44.174564	31.571260	-0.118435	1.009190	0.021439	-7.546966	44.913256	-33.356616	37.687066	41.603702	1.193815	16.080492	-89.982048	8.441590	78.497993	11.602813	30.225963	7.579941	28.505564	-34.233812	-45.000000	16.681738	-17.260596	3.740631	10.334753	-59.263991	-9.822574	70.248381	2.482239	0.339244	-23.187576	
2.2200	27.908031	44.211101	31.570654	-0.118392	1.009216	0.021438	-7.510506	44.900885	-33.153415	37.671777	41.594902	1.179635	16.178323	-89.967962	8.378131	79.033608	11.109976	29.418219	8.092666	28.526963	-34.298639	-45.000000	16.715351	-17.326629	3.688944	10.685305	-58.825605	-9.825933	70.555288	1.904199	0.996659	-22.512966	
2.2300	27.883699	44.237723	31.569123	-0.118347	1.009239	0.021433	-7.479438	44.882632	-32.932176	37.646766	41.586221	1.157755	16.293849	-89.942277	8.320762	79.571148	10.624157	28.594527	8.619381	28.552547	-34.375562	-45.000000	16.754718	-17.406295	3.627851	11.029040	-58.369009	-9.808157	70.839839	1.350119	1.601856	-21.776574	
2.2400	27.846121	44.265170	31.574469	-0.118298	1.009300	0.021415	-7.463226	44.853417	-32.702357	37.604905	41.576231	1.124146	16.437512	-89.897534	8.274864	80.082557	10.179153	27.782661	9.140676	28.578645	-34.459373	-45.000000	16.802938	-17.480408	3.558649	11.342705	-57.896257	-9.760173	71.075092	0.852828	2.132009	-21.021707	
2.2500	27.808865	44.279296	31.563946	-0.118247	1.009362	0.021386	-7.459881	44.808583	-32.464085	37.546100	41.554885	1.082152	16.635791	-89.813853	8.244853	80.604586	9.740539	26.906730	9.709169	28.606142	-34.546887	-45.000000	16.852696	-17.559339	3.486571	11.648288	-57.393366	-9.677218	71.272019	0.367310	2.653425	-20.251059	
2.2600	27.755484	44.290443	31.560364	-0.118189	1.009446	0.021343	-7.471200	44.750806	-32.235068	37.473427	41.525699	1.032965	16.903861	-89.673817	8.259958	81.102204	9.346972	26.044955	10.276877	28.631116	-34.635842	-45.000000	16.912124	-17.618464	3.409019	11.921018	-56.887319	-9.567054	71.410449	-0.064166	3.121287	-19.532763	
2.2700	27.703386	44.289172	31.543844	-0.118132	1.009530	0.021275	-7.496518	44.675652	-32.017042	37.386178	41.481644	0.978183	17.296051	-89.453503	8.350888	81.603236	8.965841	25.122625	10.896159	28.655408	-34.724835	-45.000000	16.973708	-17.672657	3.330281	12.174076	-56.355319	-9.424887	71.506987	-0.481739	3.575165	-18.812287	
2.2800	27.632251	44.292485	31.542567	-0.118078	1.009640	0.021191	-7.547462	44.573059	-31.836845	37.277501	41.413248	0.916535	17.882242	-89.132736	8.589915	82.090770	8.585859	24.172882	11.539725	28.680519	-34.820999	-45.000000	17.043749	-17.723170	3.243225	12.417052	-55.822528	-9.275105	71.557338	-0.890955	4.008613	-18.110434	
2.2900	27.554034	44.299437	31.535675	-0.118037	1.009781	0.021078	-7.643548	44.417189	-31.705897	37.125983	41.296822	0.840586	18.787817	-88.674377	9.059625	82.596152	8.158087	23.104455	12.268188	28.710683	-34.927683	-45.000000	17.114846	-17.795440	3.149324	12.677939	-55.261880	-9.114516	71.578121	-1.341630	4.460579	-17.371082	
2.3000	27.440785	44.328470	31.562418	-0.118018	1.009993	0.020946	-7.816822	44.168410	-31.670997	36.903383	41.093851	0.742824	20.282372	-88.010645	10.015250	83.111536	7.649099	21.984153	13.025678	28.750994	-35.064068	-45.000000	17.200553	-17.900781	3.031278	12.979114	-54.713361	-8.984709	71.560296	-1.835379	4.886751	-16.658330	
2.3100	27.318173	44.374363	31.566276	-0.118019	1.010317	0.020772	-8.129207	43.762439	-31.741349	36.542535	40.766671	0.586953	22.587351	-87.066055	11.615107	83.675128	7.060226	20.752734	13.845009	28.798222	-35.219785	-45.000000	17.295355	-18.029301	2.897250	13.329910	-54.130895	-8.872257	71.500728	-2.377708	5.316535	-15.911051	
2.3200	27.151376	44.460466	31.554715	-0.118040	1.010867	0.020558	-8.729861	43.031166	-32.020538	35.894478	40.187214	0.306524	26.386424	-85.595382	14.430816	84.353463	6.400579	19.459179	14.680769	28.852442	-35.412747	-45.000000	17.426584	-18.157268	2.723620	13.763104	-53.567702	-8.815131	71.393551	-2.932206	5.727433	-15.168804	
2.3300	26.944548	44.590237	31.487660	-0.118081	1.011721	0.020276	-9.713284	41.866430	-32.544875	34.857233	39.280495	-0.146850	31.953916	-83.463408	18.653816	85.192281	5.699119	18.086062	15.527921	28.908534	-35.636501	-45.000000	17.600414	-18.256002	2.510553	14.273759	-53.010165	-8.790835	71.231979	-3.460562	6.130703	-14.413326	
2.3400	26.597336	44.841763	31.340478	-0.118165	1.013382	0.019878	-11.723855	39.527212	-33.802692	32.791636	37.454956	-1.045807	42.398054	-79.507615	26.780109	86.570478	4.792978	16.540143	16.399192	28.985575	-35.974667	-45.000000	17.887935	-18.349108	2.174374	15.044010	-52.545149	-8.877932	71.019831	-3.998773	6.505462	-13.640433	
2.3500	26.149689	45.177224	31.114622	-0.118291	1.015680	0.019366	-14.526418	36.253845	-35.601672	29.912096	34.898742	-2.286639	56.474721	-74.168893	37.780589	88.359228	3.703924	14.830489	17.243465	29.072521	-36.386952	-45.000000	18.260744	-18.412242	1.751797	15.971569	-52.129688	-9.006934	70.740302	-4.486851	6.860064	-12.878945	
2.3600	25.612597	45.575295	30.848356	-0.118466	1.018451	0.018765	-17.896577	32.265519	-37.787587	26.424756	31.778156	-3.765062	73.177753	-67.838962	50.854687	90.436888	2.450456	13.007685	18.050473	29.168967	-36.861859	-45.000000	18.701860	-18.459178	1.257779	17.021309	-51.767387	-9.167004	70.409837	-4.929596	7.202052	-12.133708	
2.3700	25.093653	45.943973	30.629721	-0.118677	1.021002	0.018155	-20.922763	28.577902	-39.697378	23.223397	28.891522	-5.083995	88.134332	-62.149800	62.507338	92.257779	1.232606	11.278515	18.737956	29.255971	-37.304501	-45.000000	19.121999	-18.483690	0.791288	17.951591	-51.376528	-9.265853	70.024960	-5.273439	7.527942	-11.460185	
2.3800	24.605895	46.276460	30.464878	-0.118918	1.023241	0.017559	-23.500953	25.310068	-41.272873	20.414922	26.333680	-6.197950	100.971347	-57.275903	72.448768	93.773983	0.072039	9.650093	19.378536	29.340532	-37.716806	-45.000000	19.503025	-18.532590	0.360566	18.800634	-50.938105	-9.326330	69.616686	-5.592826	7.862573	-10.792087	
2.3900	24.244657	46.502634	30.404308	-0.119168	1.024626	0.017039	-24.958629	23.250316	-42.021342	18.678867	24.726696	-6.820591	108.424894	-54.428515	78.076958	94.577900	-0.840405	8.271010	19.917639	29.405149	-38.017691	-45.000000	19.773533	-18.588515	0.048334	19.384278	-50.375160	-9.291044	69.173871	-5.830421	8.210279	-10.168789	
2.4000	23.992865	46.648373	30.418070	-0.119414	1.025299	0.016588	-25.497372	22.204320	-42.084239	17.831532	23.931202	-7.050269	111.434842	-53.259094	80.154038	94.778915	-1.470479	7.126438	20.417950	29.455564	-38.229295	-45.000000	19.950698	-18.661270	-0.166307	19.779085	-49.700525	-9.201582	68.713718	-6.023163	8.579730	-9.537412	
